<svg version="1" xmlns="http://www.w3.org/2000/svg" width="800" height="800" viewBox="0 0 600.000000 600.000000"><path d="M262.6 2.1C206 9.4 157.3 30 112 65.8c-9.6 7.7-34.2 31.5-41.8 40.7C31.7 152.8 8.9 205.8 1.6 266c-2.8 23.2-1.4 65.2 2.9 88 2.5 13.4 6.6 29.7 9.5 38 10.3 30 20.3 50.5 35.7 73.8C94.6 533.6 166.3 581 245.5 595.4c18.5 3.4 26.4 4 52 4 23.6.1 39.5-.6 44.5-1.9.8-.2 3.5-.7 6-1 7.3-1.1 22.9-4.4 31-6.6 52-14.6 95.2-39.8 133-77.8 28.8-28.8 47.9-56.7 63.5-92.5 11.3-26 17.1-47.5 23.1-85.1.3-2.2.7-15.9.9-30.5.3-26.3-.7-40.9-4-58-10-52.5-32.3-99.6-65.9-139.6-6.2-7.4-29.3-30.5-36.5-36.4C446.2 30.9 391.2 7.7 330 1.1c-14.9-1.5-52-1-67.4 1z"/></svg>